<?xml version="1.0" standalone="no"?><!DOCTYPE svg PUBLIC "-//W3C//DTD SVG 1.1//EN" "http://www.w3.org/Graphics/SVG/1.1/DTD/svg11.dtd"><svg t="1588906002686" class="icon" viewBox="0 0 1024 1024" version="1.1" xmlns="http://www.w3.org/2000/svg" p-id="3853" xmlns:xlink="http://www.w3.org/1999/xlink" width="200" height="200"><defs><style type="text/css"></style></defs><path d="M828.704 196.576c-84.608-84.192-197.056-130.56-316.704-130.56s-232.128 46.368-316.736 130.56A442.08 442.08 0 0 0 64 512c0 119.2 46.624 231.2 131.232 315.424s197.088 130.56 316.736 130.56 232.128-46.368 316.704-130.56a441.92 441.92 0 0 0 131.264-315.456 441.696 441.696 0 0 0-131.232-315.392zM736 544h-192v192a32 32 0 1 1-64 0v-192H288a32 32 0 0 1 0-64h192V288a32 32 0 0 1 64 0v192h192a32 32 0 1 1 0 64z" p-id="3854" fill="#ffffff"></path></svg>